<svg id="Calque_1" data-name="Calque 1" xmlns="http://www.w3.org/2000/svg" xmlns:xlink="http://www.w3.org/1999/xlink" viewBox="0 0 332.6 172.75"><defs><style>.cls-1{fill:none;}.cls-2{clip-path:url(#clip-path);}.cls-3{fill:#1d1d1b;}</style><clipPath id="clip-path"><rect class="cls-1" x="16.64" y="11.49" width="299.13" height="148.91"/></clipPath></defs><g class="cls-2"><path class="cls-3" d="M133.9,75.92q0-31.56,0-63.12c0-.51.16-.61.68-.61q23.48,0,47,0c.51,0,.67.1.67.61q0,7.74,0,15.5c0,.47-.17.55-.63.54q-13.14,0-26.3,0c-.81,0-.72-.08-.72.63q0,17.46,0,34.91c0,.48.14.58.64.58,7.15,0,14.3,0,21.45,0,.56,0,.69.14.69.63q0,8.31,0,16.62c0,.46-.13.58-.64.58-7.15,0-14.3,0-21.45,0-.68,0-.68,0-.68.63q0,19.61,0,39.22c0,.44.14.52.58.52l26.41,0c.52,0,.67.1.67.6q0,7.76,0,15.51c0,.47-.18.54-.63.54q-23.51,0-47,0c-.55,0-.66-.15-.66-.63q0-31.6,0-63.21"/><path class="cls-3" d="M212.66,116.14a8.32,8.32,0,0,0,3,6.34,6.2,6.2,0,0,0,2.51,1.14,10.15,10.15,0,0,0,3.68.11,6.14,6.14,0,0,0,4.55-2.94,9.34,9.34,0,0,0,1.33-3.61c.05-.35.14-.71.18-1.07.16-.21.07-.45.09-.68a6.38,6.38,0,0,1,.09-1.63v-22c0-.19,0-.38,0-.57a1,1,0,0,1,.61-.09c6.36,0,12.72,0,19.08,0,.22,0,.62-.18.6.28a7.18,7.18,0,0,0-.24,1.52c-.16.2-.07.43-.09.65v.71c0,.19,0,.39-.09.56l0,.19a5.67,5.67,0,0,0-.09,1.59v1.94a.8.8,0,0,1-.09.5c0,.13,0,.25,0,.38a.88.88,0,0,0-.08.55c0,.92,0,1.84,0,2.76a1,1,0,0,1-.08.56c0,3,0,6,0,9a4.84,4.84,0,0,0-.09,1.37c0,.19.05.39-.08.57-.16,1.25-.27,2.5-.48,3.75a37.49,37.49,0,0,1-.84,3.78,30.7,30.7,0,0,1-1.47,4.23,27.88,27.88,0,0,1-3,5.35,22,22,0,0,1-4.41,4.47,20.19,20.19,0,0,1-5.48,3,30.32,30.32,0,0,1-3.77,1.13,33.65,33.65,0,0,1-3.75.6l-1.49.15a.37.37,0,0,1-.2.07c-1.45,0-2.91,0-4.37,0a.34.34,0,0,1-.19-.07,33,33,0,0,1-3.86-.43,26.08,26.08,0,0,1-8.41-2.9,21.19,21.19,0,0,1-3.27-2.27,23.26,23.26,0,0,1-5.41-6.61,24.78,24.78,0,0,1-1.79-4c-.38-1.13-.78-2.25-1.06-3.41-.24-1-.47-1.94-.64-2.92s-.29-1.8-.42-2.7c-.27-1.81-.32-3.62-.43-5.44-.17-2.87,0-5.74-.24-8.6-.16-2.4-.07-4.8-.17-7.2,0-.15,0-.29,0-.43a6.91,6.91,0,0,1-.09-1.7,5.74,5.74,0,0,0-.09-1.6l0-.57a.82.82,0,0,1-.09-.55V86.16a.88.88,0,0,0-.09-.55c0-2.45.05-4.9-.1-7.34-.09-1.37,0-2.72-.11-4.08a.9.9,0,0,0,.09-.56V70.49a.85.85,0,0,1,.09-.56c0-.31,0-.63,0-1,.19-3.26.11-6.53.28-9.78.13-2.44,0-4.87.19-7.3.14-1.78.1-3.56.17-5.34.15-.2.09-.43.09-.65,0-.88,0-1.75,0-2.63V40.93a.91.91,0,0,1,.09-.51h0c.19-.39,0-.8.09-1.2a3.12,3.12,0,0,1,.09-1.1c.16-1.19.27-2.39.48-3.56a38.3,38.3,0,0,1,.84-3.79A33.82,33.82,0,0,1,195.8,26a24.12,24.12,0,0,1,6.68-9,22.33,22.33,0,0,1,5.46-3.3A25.78,25.78,0,0,1,212,12.42c1-.23,2.05-.45,3.1-.59a13.55,13.55,0,0,1,1.55-.15,2.27,2.27,0,0,1,.9-.09,1.13,1.13,0,0,0,.6-.08c1.53,0,3.07-.08,4.59,0a32.52,32.52,0,0,1,3.78.47,31.7,31.7,0,0,1,3.49.85,22.94,22.94,0,0,1,4.67,2.06A21.5,21.5,0,0,1,239.78,19a23,23,0,0,1,3.59,5.21,33.61,33.61,0,0,1,2.73,7.37c.22,1,.46,1.94.63,2.93s.32,2,.43,2.93c.05.42.13.84.18,1.26.13.17.07.37.08.56.05.39-.09.8.09,1.18l0,1.14a1,1,0,0,1,.08.6c0,1.59,0,3.18,0,4.77a1,1,0,0,0,.08.6c0,.89,0,1.77,0,2.65a3.23,3.23,0,0,1,.09,1.12v.9c0,.22-.07.46.09.67a8.54,8.54,0,0,0,.28,1.87c0,.23,0,.21-.16.23h-.37q-9.54,0-19.07,0c-.5,0-.55-.15-.55-.54,0-5.5,0-11,0-16.52a6.38,6.38,0,0,1-.09-1.63c0-.23.07-.47-.09-.69a10.71,10.71,0,0,0-1.7-5A5.87,5.87,0,0,0,223,28.22a8.64,8.64,0,0,0-4-.31,7.76,7.76,0,0,0-3,1A6.54,6.54,0,0,0,213.5,32a9.63,9.63,0,0,0-.83,3.22c-.2.38,0,.79-.1,1.18,0,.19,0,.39-.09.56V47.46c0,2,0,4,.05,6,.28,7.27.13,14.54.18,21.81,0,7,.06,14-.1,21.06-.13,5.92-.09,11.83-.15,17.74,0,.22,0,.44,0,.67.16.26.06.55.09.83s0,.37.09.54"/><path class="cls-3" d="M294.85,116.3a10,10,0,0,1-1.71,5.15,6.39,6.39,0,0,1-3.18,2.32,9.22,9.22,0,0,1-4.26.34,6.4,6.4,0,0,1-4.81-3,9.19,9.19,0,0,1-1.33-3.59q-.1-.63-.18-1.26c-.28-.06-.2-.28-.2-.43,0-2.62,0-5.24,0-7.85,0-.14,0-.3.19-.35,0-2.78-.05-5.56.09-8.33.23-4.76,0-9.53.21-14.29.24-5.6.22-11.2.06-16.79-.14-4.81,0-9.63-.2-14.44s-.07-9.53-.18-14.29c0-.32-.12-.61-.14-.93a20,20,0,0,1,.22-3.47A8.53,8.53,0,0,1,282,29.65a6,6,0,0,1,2.89-1.49,8.92,8.92,0,0,1,2.51-.32,7.36,7.36,0,0,1,5.19,2.07,7.94,7.94,0,0,1,1.69,2.88,14.62,14.62,0,0,1,.67,3.87,14.24,14.24,0,0,1,.09,1.85c-.3,4.79,0,9.59-.23,14.38s0,9.57-.2,14.34c-.25,5.69-.23,11.39-.07,17.07.13,4.8,0,9.6.21,14.39.14,3.06,0,6.12.15,9.17.25.06.19.24.19.39,0,2.51,0,5,0,7.52,0,.18.13.43-.2.53m20.92-38.44c0-1.92,0-3.85,0-5.77-.15,0-.15-.15-.15-.27l0-4c-.08-1.33-.07-2.66-.16-4-.19-2.51,0-5-.21-7.54s0-5.31-.23-8c-.11-1.29-.05-2.58-.07-3.87-.19,0-.2-.16-.19-.29,0-.75,0-1.49,0-2.24V39.87l0-.75c-.34-.29-.15-.65-.18-1v-.57c0-.68-.19-1.35-.29-2a12.38,12.38,0,0,0-.2-1.34c-.18-.79-.41-1.57-.56-2.36A13.58,13.58,0,0,0,313,30c-.36-1.09-.74-2.17-1.19-3.23a27.86,27.86,0,0,0-1.94-3.81,22.59,22.59,0,0,0-5.71-6.29,22.3,22.3,0,0,0-5-2.8,19.4,19.4,0,0,0-2.72-.94c-1-.26-1.94-.46-2.93-.65a27.17,27.17,0,0,0-3.89-.47,36.75,36.75,0,0,0-7.7.29c-.91.14-1.84.26-2.73.47a27.51,27.51,0,0,0-4,1.27,23.71,23.71,0,0,0-4.87,2.68A21.41,21.41,0,0,0,266.49,20a23.16,23.16,0,0,0-2.33,3.27,30.7,30.7,0,0,0-2,4c-.44,1.12-.82,2.26-1.17,3.4a34.58,34.58,0,0,0-.84,3.59c-.21,1.08-.32,2.18-.48,3.27v.57c0,.33.16.69-.18,1l0,2.44c0,.82,0,1.65,0,2.48a.21.21,0,0,1-.2.24l0,.57,0,4c0,.12,0,.23-.15.27s0,.35,0,.52c0,2.17,0,4.33-.05,6.5,0,1.08,0,2.16,0,3.24,0,.13,0,.22-.19.24-.1,1.71,0,3.42-.16,5.13-.18,2.93,0,5.87-.26,8.81,0,.58,0,1.17,0,1.76v1.92l0,.57c.15,0,.19.12.19.24,0,1,0,2,0,3,0,.13,0,.26,0,.38.1,2.42,0,4.83.18,7.25.21,2.61,0,5.24.23,7.86.11,1.33,0,2.68.07,4,.19,0,.2.15.19.28,0,1.07,0,2.13,0,3.2,0,.14,0,.28,0,.42q0,3.11.05,6.21c.15,0,.16.15.16.26,0,.63,0,1.26,0,1.89l0,.18c.35.13.15.39.18.6V115c.15.86.25,1.73.4,2.6.18,1,.39,2,.63,3.06a36.21,36.21,0,0,0,1.06,3.55,30.14,30.14,0,0,0,1.7,3.92,24.28,24.28,0,0,0,3.61,5.17,21.48,21.48,0,0,0,6,4.62,25.65,25.65,0,0,0,7.71,2.51,28.83,28.83,0,0,0,3.82.44h4.87l1.49-.16a29.36,29.36,0,0,0,4.59-.79,30,30,0,0,0,3.51-1.14,21.71,21.71,0,0,0,5.92-3.51,20.63,20.63,0,0,0,3.54-3.76,23.78,23.78,0,0,0,2.53-4.17c.5-1,.93-2.11,1.33-3.2s.65-2,1-3a18.61,18.61,0,0,0,.63-2.83,29.35,29.35,0,0,0,.48-3.85v-1h0c0-.2-.17-.47.18-.59l0-.19,0-2a.26.26,0,0,1,.15-.28c.07-2.36,0-4.73.15-7.1s.08-4.67.1-7c0-1,0-2,0-3.06a.21.21,0,0,1,.19-.24c0-.19,0-.38,0-.57,0-1.33,0-2.66,0-4,0-.12,0-.23.16-.27,0-.13,0-.25,0-.38.12-2.52-.08-5,.2-7.57.08-.76,0-1.52,0-2.29"/><path class="cls-3" d="M34.94,124.53a23.31,23.31,0,0,0-.45-2.88c-.19-.25,0-.56-.18-.81l0-.54c-.2-.24,0-.56-.18-.8l0-.55c-.19-.24,0-.56-.18-.8a19.75,19.75,0,0,0-.38-2.64c-.08-.65-.26-1.29-.28-2-.2-.24,0-.56-.19-.8l0-.55c-.2-.24,0-.56-.18-.79l0-.56c-.2-.24,0-.56-.19-.79a23.31,23.31,0,0,0-.45-2.88c-.19-.24,0-.56-.18-.8l0-.55c-.2-.24,0-.56-.18-.8,0-.18,0-.37,0-.55-.19-.24,0-.56-.18-.8a19.75,19.75,0,0,0-.38-2.64c-.08-.65-.26-1.29-.28-2-.2-.24,0-.56-.19-.8l0-.55c-.2-.24,0-.56-.18-.79l0-.56c-.2-.24,0-.55-.19-.79a23.31,23.31,0,0,0-.45-2.88c-.19-.24,0-.56-.18-.8l0-.55c-.2-.24,0-.56-.18-.8l0-.55c-.2-.24,0-.55-.19-.79a19.52,19.52,0,0,0-.38-2.64c-.08-.66-.26-1.3-.28-2-.2-.24,0-.56-.19-.79l0-.56c-.2-.24,0-.55-.18-.79l0-.56c-.2-.24,0-.55-.18-.79a25.75,25.75,0,0,0-.46-2.88c-.19-.24,0-.56-.18-.8l0-.55c-.2-.24,0-.56-.18-.8l0-.55c-.2-.24,0-.55-.19-.79a19.52,19.52,0,0,0-.38-2.64c-.08-.66-.26-1.3-.28-2-.2-.24,0-.55-.19-.79l0-.56c-.19-.24,0-.55-.18-.79l0-.56c-.2-.23,0-.55-.18-.79a25.75,25.75,0,0,0-.46-2.88c-.19-.24,0-.56-.18-.8l0-.54c-.2-.25,0-.56-.18-.81l0-.54c-.2-.24,0-.56-.19-.8a19.52,19.52,0,0,0-.38-2.64c-.08-.66-.26-1.3-.28-2-.2-.24,0-.55-.19-.79l0-.56c-.19-.23,0-.55-.18-.79l0-.55c-.2-.24,0-.56-.18-.8a25.58,25.58,0,0,0-.46-2.87c-.19-.25,0-.56-.18-.81l0-.54c-.2-.24,0-.56-.18-.8l0-.55c-.2-.24,0-.56-.19-.8a19.52,19.52,0,0,0-.38-2.64c-.08-.65-.26-1.3-.28-2-.2-.23,0-.55-.19-.79,0-.18,0-.37,0-.55-.2-.24,0-.56-.19-.8l0-.55c-.2-.24,0-.56-.18-.79a23.33,23.33,0,0,0-.46-2.88c-.19-.25,0-.56-.18-.81l0-.54c-.19-.24,0-.56-.18-.8l0-.55c-.2-.24,0-.56-.19-.8a19.73,19.73,0,0,0-.37-2.64,18.34,18.34,0,0,1-.29-2c-.2-.24,0-.56-.19-.8,0-.18,0-.37,0-.55-.2-.24,0-.56-.19-.79l0-.56c-.2-.24,0-.56-.18-.79a23.33,23.33,0,0,0-.46-2.88c-.19-.24,0-.56-.18-.8l0-.55c-.19-.24,0-.56-.18-.8l0-.55c-.2-.24,0-.56-.19-.8a18.25,18.25,0,0,0-.38-2.64c-.08-.65-.25-1.29-.29-2a.27.27,0,0,1,0-.39q9.51,0,19,0c.55,0,.46.45.47.62,0,.61.23,1.19.3,1.79.1.81.28,1.61.43,2.42.15.17,0,.42.17.6a29,29,0,0,0,.61,3.43c.1.45.15.91.21,1.35.14,1,.36,2,.51,3,.19,1.22.46,2.43.65,3.66.12.78.29,1.55.42,2.32s.31,1.48.4,2.22c.16.18,0,.43.18.61a26.94,26.94,0,0,0,.61,3.44c.1.46.15.94.21,1.4.15,1,.36,2,.52,3,.19,1.23.45,2.45.64,3.67.12.73.28,1.46.41,2.19.21,1.24.46,2.47.66,3.72.12.74.25,1.49.41,2.22.21.94.28,1.89.55,2.82a8.83,8.83,0,0,1,.22,1.35c.13,1,.36,2,.51,3,.19,1.2.42,2.39.63,3.59s.45,2.38.65,3.57c.13.78.28,1.55.42,2.33.21,1.21.42,2.42.66,3.62a4.75,4.75,0,0,0,.3,1.47c.1.19.15.29.38.26a1.62,1.62,0,0,1,.22,0c1,0,1,0,1.15-1,.15-1.14.34-2.27.6-3.4.11-.46.14-.93.23-1.4.22-1.09.36-2.2.62-3.29A10.68,10.68,0,0,0,51,65.26c.11-1,.36-2.05.52-3.08.18-1.2.43-2.39.63-3.58.15-.84.29-1.68.45-2.52A14.66,14.66,0,0,0,53,53.8c.17-.17,0-.42.18-.6.18-1.08.34-2.17.61-3.24.11-.44.14-.9.21-1.35.14-1,.36-2,.51-3,.19-1.23.44-2.44.65-3.67.14-.82.29-1.64.43-2.46A14.68,14.68,0,0,0,56,37.22c.17-.17,0-.42.18-.6.18-1.08.34-2.17.6-3.24A12.78,12.78,0,0,0,57,32c.15-1,.39-2,.52-3a23.92,23.92,0,0,0,.4-2.37c.17-.18,0-.43.18-.6.18-1.14.38-2.27.6-3.4.1-.53.19-1.09.29-1.63.17-1,.29-2,.56-3a10.26,10.26,0,0,0,.22-1.35c.14-1,.38-2,.52-3,0-.43.16-.87.2-1.31s.25-.39.58-.39h6.32c4,0,8,0,12,0,.45,0,.62.15.67.53.15,1.17.39,2.33.59,3.49.11.6.2,1.22.32,1.82a27.47,27.47,0,0,0,.54,2.82,8.19,8.19,0,0,1,.21,1.3c.13,1,.37,2.06.52,3.09.19,1.2.42,2.39.64,3.58l.63,3.53c.21,1.19.43,2.39.64,3.58s.44,2.35.64,3.53.43,2.38.64,3.58L86,46.27c.21,1.21.43,2.42.65,3.63l.63,3.52c.14.76.29,1.52.41,2.28.15.18,0,.43.18.61a29,29,0,0,0,.61,3.43c.09.41.14.84.19,1.25.08.62.21,1.23.32,1.83a22.65,22.65,0,0,0,.55,2.82,3.71,3.71,0,0,1,.06.67c.16.18,0,.43.18.6a28.78,28.78,0,0,0,.6,3.44c.11.48.16,1,.23,1.45.14,1,.44,2,.49,3,0,.21.21.4.18.63s.12.16.25.16c.33,0,.67,0,1,0s.37-.42.39-.6c.09-1,.35-2.06.53-3.09A23,23,0,0,1,94,69.07c.12-.42.12-.86.22-1.3.22-1,.29-2,.49-3,.24-1.21.44-2.42.65-3.63L96,57.67c.23-1.21.43-2.42.65-3.63s.42-2.35.64-3.53l.63-3.58c.21-1.18.44-2.35.64-3.53S99,41,99.2,39.82s.42-2.35.64-3.53.43-2.35.63-3.53.43-2.38.64-3.58.42-2.35.64-3.52.42-2.43.64-3.64.43-2.32.63-3.48.43-2.42.66-3.62a23.48,23.48,0,0,1,.53-2.73c.08-.24.19-.24.4-.24h18.65c.29,0,.43.06.37.34a2.13,2.13,0,0,0,0,.44c-.21.23,0,.55-.19.79l0,.55c-.2.24,0,.56-.18.79,0,.65-.31,1.26-.25,1.91-.19.24,0,.55-.18.79-.21,1.19-.36,2.39-.6,3.58-.1.51-.17,1-.24,1.55-.19,1.23-.34,2.46-.62,3.68a4.35,4.35,0,0,0,0,.81c-.21.24,0,.56-.19.79l0,.56c-.2.24,0,.56-.18.79,0,.65-.31,1.26-.25,1.91-.19.24,0,.55-.18.79-.21,1.19-.36,2.39-.6,3.58-.1.51-.17,1-.24,1.55-.19,1.23-.34,2.46-.62,3.68a4.35,4.35,0,0,0,0,.81c-.21.24,0,.56-.19.79l0,.56c-.2.24,0,.55-.18.79,0,.65-.31,1.25-.24,1.9-.2.24,0,.56-.19.8-.21,1.19-.36,2.39-.59,3.58-.1.51-.17,1-.25,1.55-.19,1.23-.34,2.46-.62,3.68a4.35,4.35,0,0,0,0,.81c-.2.24,0,.55-.19.79l0,.56c-.2.24,0,.55-.18.79,0,.64-.31,1.25-.24,1.9-.2.24,0,.56-.19.8-.21,1.19-.36,2.39-.59,3.58-.1.51-.17,1-.25,1.55-.19,1.22-.34,2.46-.62,3.67a4.52,4.52,0,0,0,0,.82c-.2.24,0,.55-.19.79l0,.56c-.2.23,0,.55-.18.79,0,.64-.31,1.25-.24,1.9-.2.24,0,.56-.19.8-.2,1.19-.36,2.39-.59,3.58-.1.51-.17,1-.25,1.54-.19,1.23-.34,2.47-.61,3.68a4.53,4.53,0,0,0-.06.82c-.2.23,0,.55-.19.79l0,.56c-.2.23,0,.55-.18.79,0,.64-.31,1.25-.24,1.9-.2.24,0,.56-.19.79-.2,1.2-.36,2.4-.59,3.59-.1.5-.17,1-.25,1.54-.19,1.23-.34,2.46-.61,3.68a5.46,5.46,0,0,0-.06.82c-.2.23,0,.55-.19.79,0,.18,0,.37,0,.55-.21.24,0,.56-.19.79,0,.65-.31,1.26-.24,1.91-.2.24,0,.55-.19.79-.2,1.19-.36,2.39-.59,3.58-.1.51-.17,1-.25,1.55-.19,1.23-.34,2.46-.61,3.68a5.42,5.42,0,0,0-.06.81c-.2.24,0,.56-.19.79,0,.19,0,.38,0,.56-.2.24,0,.56-.19.79,0,.65-.31,1.26-.24,1.91-.2.24,0,.55-.19.79-.2,1.19-.36,2.39-.59,3.58-.1.51-.17,1-.25,1.55-.19,1.23-.33,2.46-.61,3.68a5.42,5.42,0,0,0-.06.81c-.2.24,0,.56-.19.79,0,.19,0,.37,0,.56-.2.24,0,.55-.19.79,0,.65-.31,1.25-.24,1.9-.2.24,0,.56-.19.8-.2,1.19-.39,2.39-.58,3.59a8.23,8.23,0,0,0-.28,2c0,.34-.16.46-.51.43h-.21c-6.89,0-13.79,0-20.68,0-.57,0-.68-.16-.74-.64a28.39,28.39,0,0,0-.58-3.54,5,5,0,0,1,0-.67c-.2-.24,0-.56-.18-.8l0-.55c-.2-.24,0-.56-.19-.8,0-.18,0-.37,0-.55-.2-.24,0-.56-.19-.79l0-.56c-.2-.24,0-.56-.18-.79l0-.56c-.2-.24,0-.55-.19-.79,0-.19,0-.37,0-.56-.2-.24,0-.55-.19-.79l0-.56c-.19-.24,0-.55-.18-.79-.15-1.28-.34-2.56-.61-3.83a13.44,13.44,0,0,1-.19-1.4,13.37,13.37,0,0,1-.3-2.08c0-.33-.24-.63-.2-1-.2-.24,0-.56-.19-.8l0-.55c-.19-.24,0-.56-.18-.8l0-.55c-.19-.24,0-.56-.18-.8a7.11,7.11,0,0,0-.25-1.89c-.19-.25,0-.56-.18-.81l0-.54c-.19-.25,0-.56-.18-.8l0-.55c-.2-.24,0-.56-.18-.8l0-.55c-.2-.24,0-.56-.19-.8l0-.55c-.19-.24,0-.56-.18-.8l0-.74c-.19-.24,0-.55-.19-.79l0-.37c-.2-.24,0-.56-.19-.8a27.6,27.6,0,0,0-.45-3.25c-.19-.24,0-.55-.18-.79l0-.56c-.2-.24,0-.55-.19-.79l0-.56c-.19-.24,0-.55-.18-.79l0-.55c-.19-.24,0-.56-.18-.8a12.12,12.12,0,0,0-.4-2.61c-.1-.46-.12-.94-.19-1.4-.09-.68-.24-1.34-.31-2-.07-.88-.26-1.75-.41-2.62-.19-.24,0-.55-.18-.79l0-.56c-.2-.24,0-.55-.18-.79l0-.56c-.2-.23,0-.55-.19-.79,0-.18,0-.37,0-.56-.2-.23,0-.55-.19-.79l0-.56c-.19-.23,0-.55-.18-.79l0-.55c-.2-.24,0-.56-.18-.8l0-.55c-.2-.24,0-.56-.19-.79a7.94,7.94,0,0,0-.22-1.54c0-.15-.1-.18-.24-.18-.41,0-.82,0-1.22,0s-.19.36-.26.54,0,.56-.18.8c-.27,1.16-.33,2.34-.61,3.49a5.14,5.14,0,0,0-.06,1.11c-.19.24,0,.56-.19.8l0,.54c-.18.25,0,.57-.18.81l0,.54c-.19.25,0,.57-.18.81-.26,1.47-.5,2.94-.7,4.42-.11.84-.36,1.66-.39,2.51-.2.23,0,.55-.19.79,0,.18,0,.37,0,.56-.2.23,0,.55-.19.79l0,.55c-.2.24,0,.56-.18.8l0,.55c-.2.24,0,.56-.18.8l0,.55c-.2.24,0,.56-.19.79l0,.56c-.19.24,0,.56-.18.79l0,.56c-.2.24,0,.55-.18.79l0,.56c-.2.24,0,.55-.19.79l0,.56c-.19.24,0,.55-.18.79-.2,1.22-.4,2.44-.59,3.66a9.77,9.77,0,0,0-.28,2.29c-.21.24,0,.56-.19.8l0,.55c-.2.24,0,.56-.18.8a32.17,32.17,0,0,0-.46,3.25c-.2.24,0,.55-.18.79a29.9,29.9,0,0,0-.46,3.25c-.19.24,0,.56-.18.8l0,.55c-.19.24,0,.56-.18.8l0,.55c-.2.24,0,.56-.18.8,0,.18,0,.37,0,.55-.19.24,0,.56-.18.8l0,.55c-.19.24,0,.56-.18.8-.27,1.15-.32,2.34-.61,3.49a5.71,5.71,0,0,0-.06,1.1c-.19.25,0,.56-.18.81l0,.54c-.19.24,0,.56-.18.8,0,.19,0,.37,0,.55-.18.24,0,.56-.18.8-.26,1.47-.49,2.93-.7,4.4a12.15,12.15,0,0,0-.17,1.21c0,.29-.14.42-.45.4H38c-.71,0-.67,0-.75-.65-.1-.82-.28-1.64-.42-2.46-.2-.25,0-.56-.18-.81l0-.54c-.2-.24,0-.56-.19-.8l0-.55c-.19-.24,0-.56-.18-.8a19.52,19.52,0,0,0-.38-2.64c-.08-.65-.26-1.3-.28-2-.2-.23,0-.55-.19-.79l0-.55c-.2-.24,0-.56-.18-.8l0-.55c-.2-.24,0-.56-.19-.79"/><path class="cls-3" d="M123.42,13.51c0-.28-.15-.58.19-.79,0,.27.14.58-.19.79"/><path class="cls-3" d="M123.21,14.85c0-.27-.15-.58.18-.79,0,.28.15.58-.18.79"/><path class="cls-3" d="M36.65,135.3c.33.22.14.53.18.81-.38-.21-.16-.53-.18-.81"/><path class="cls-3" d="M122.78,17.55c0-.27-.15-.58.18-.79,0,.27.15.58-.18.79"/><path class="cls-3" d="M17.5,16.94c.33.22.15.53.19.8-.38-.21-.17-.52-.19-.8"/><path class="cls-3" d="M17.72,18.29c.33.22.15.53.18.8-.38-.21-.16-.53-.18-.8"/><path class="cls-3" d="M17.93,19.64c.33.21.15.53.19.8-.39-.21-.17-.53-.19-.8"/><path class="cls-3" d="M18.57,23.32c.33.21.17.52.18.79-.33-.21-.17-.52-.18-.79"/><path class="cls-3" d="M18.78,24.67c.34.21.17.52.19.79-.34-.21-.18-.52-.19-.79"/><path class="cls-3" d="M19,26c.33.21.16.52.18.8-.34-.22-.18-.52-.18-.8"/><path class="cls-3" d="M36.44,134c.32.21.14.52.18.8-.38-.21-.17-.53-.18-.8"/><path class="cls-3" d="M121.08,28c0-.27-.15-.58.19-.79,0,.28.15.58-.19.79"/><path class="cls-3" d="M120.87,29.31c0-.27-.15-.58.18-.79,0,.27.15.58-.18.79"/><path class="cls-3" d="M120.44,32c0-.27-.15-.58.19-.79,0,.27.15.58-.19.79"/><path class="cls-3" d="M19.84,31.4c.33.22.15.53.19.8-.38-.21-.17-.52-.19-.8"/><path class="cls-3" d="M20.06,32.75c.33.21.15.53.18.8-.38-.21-.16-.53-.18-.8"/><path class="cls-3" d="M20.27,34.09c.33.22.15.54.18.81-.38-.21-.16-.53-.18-.81"/><path class="cls-3" d="M36.22,132.61c.33.22.15.53.18.8-.37-.21-.16-.53-.18-.8"/><path class="cls-3" d="M20.91,37.78c.33.21.17.51.18.79-.33-.21-.17-.52-.18-.79"/><path class="cls-3" d="M21.12,39.12c.34.21.17.52.19.8-.34-.22-.18-.52-.19-.8"/><path class="cls-3" d="M21.33,40.47c.34.21.17.52.19.79-.34-.21-.18-.51-.19-.79"/><path class="cls-3" d="M118.74,42.42c0-.27-.15-.58.19-.79,0,.27.15.58-.19.79"/><path class="cls-3" d="M118.53,43.77c0-.27-.15-.58.18-.79,0,.27.15.58-.18.79"/><path class="cls-3" d="M118.1,46.47c0-.27-.15-.58.19-.8,0,.28.15.59-.19.8"/><path class="cls-3" d="M22.18,45.86c.33.22.15.53.19.8-.38-.21-.17-.53-.19-.8"/><path class="cls-3" d="M22.4,47.21c.33.21.15.52.18.8-.38-.21-.16-.53-.18-.8"/><path class="cls-3" d="M22.61,48.55c.33.22.15.53.18.81-.38-.21-.16-.53-.18-.81"/><path class="cls-3" d="M23.25,52.23c.33.21.17.52.18.79-.33-.21-.17-.51-.18-.79"/><path class="cls-3" d="M104.06,133.22c0-.27-.15-.58.19-.79,0,.27.15.58-.19.79"/><path class="cls-3" d="M23.46,53.58c.34.21.17.52.18.79-.33-.21-.17-.51-.18-.79"/><path class="cls-3" d="M23.67,54.93c.34.21.17.52.19.79-.34-.21-.18-.52-.19-.79"/><path class="cls-3" d="M60.25,133.21c0-.27-.15-.58.18-.8,0,.27.21.59-.18.8"/><path class="cls-3" d="M116.4,56.88c0-.27-.15-.58.19-.79,0,.27.15.58-.19.79"/><path class="cls-3" d="M116.19,58.23c0-.27-.15-.58.18-.79,0,.27.15.58-.18.79"/><path class="cls-3" d="M115.76,60.93c0-.28-.15-.59.19-.8,0,.28.15.58-.19.8"/><path class="cls-3" d="M24.52,60.32c.33.21.15.52.19.8-.38-.21-.17-.53-.19-.8"/><path class="cls-3" d="M24.74,61.66c.32.22.15.53.18.81-.38-.21-.17-.53-.18-.81"/><path class="cls-3" d="M25,63c.33.22.15.53.18.8-.38-.2-.16-.52-.18-.8"/><path class="cls-3" d="M80,132.23c.34.22.17.53.19.8-.34-.21-.18-.52-.19-.8"/><path class="cls-3" d="M25.59,66.69c.33.21.17.52.18.79-.33-.21-.17-.51-.18-.79"/><path class="cls-3" d="M25.8,68c.34.21.17.52.18.79-.33-.21-.17-.52-.18-.79"/><path class="cls-3" d="M26,69.39c.34.21.17.52.19.79-.34-.21-.18-.52-.19-.79"/><path class="cls-3" d="M114.06,71.34c0-.27-.15-.58.19-.79,0,.27.15.58-.19.79"/><path class="cls-3" d="M113.85,72.69c0-.27-.15-.58.19-.79,0,.27.14.58-.19.79"/><path class="cls-3" d="M113.42,75.39c0-.28-.15-.59.19-.8,0,.28.15.58-.19.8"/><path class="cls-3" d="M26.86,74.78c.33.21.15.52.19.79-.38-.2-.17-.52-.19-.79"/><path class="cls-3" d="M60.47,131.86c0-.27-.16-.58.18-.8,0,.28.2.6-.18.8"/><path class="cls-3" d="M27.08,76.12c.32.22.15.53.18.8-.38-.2-.17-.52-.18-.8"/><path class="cls-3" d="M69.19,76.92c0-.27-.15-.58.18-.8,0,.28.19.6-.18.8"/><path class="cls-3" d="M71.31,77.3c.34.21.17.51.19.79-.34-.21-.18-.52-.19-.79"/><path class="cls-3" d="M27.29,77.47c.33.22.15.53.18.8-.38-.2-.16-.53-.18-.8"/><path class="cls-3" d="M71.53,78.64c.33.22.17.52.18.8-.33-.22-.17-.52-.18-.8"/><path class="cls-3" d="M71.74,80c.33.21.17.52.18.8-.33-.22-.17-.52-.18-.8"/><path class="cls-3" d="M27.93,81.15c.33.21.17.52.18.79-.33-.21-.17-.52-.18-.79"/><path class="cls-3" d="M72,81.34c.34.21.17.52.19.79-.34-.21-.18-.51-.19-.79"/><path class="cls-3" d="M68.33,82.32c0-.27-.14-.59.19-.8,0,.27.2.59-.19.8"/><path class="cls-3" d="M28.14,82.5c.34.21.17.52.18.79-.33-.21-.17-.52-.18-.79"/><path class="cls-3" d="M72.16,82.69c.34.21.17.52.19.79-.34-.21-.18-.51-.19-.79"/><path class="cls-3" d="M68.12,83.67c0-.27-.15-.59.18-.8,0,.27.21.59-.18.8"/><path class="cls-3" d="M28.35,83.85c.34.21.17.52.19.79-.34-.21-.18-.52-.19-.79"/><path class="cls-3" d="M72.38,84c.34.21.16.52.18.79-.33-.21-.17-.52-.18-.79"/><path class="cls-3" d="M67.91,85c0-.27-.15-.59.18-.81,0,.28.2.6-.18.81"/><path class="cls-3" d="M111.72,85.8c0-.28-.15-.58.19-.79,0,.27.15.58-.19.79"/><path class="cls-3" d="M111.51,87.15c0-.28-.15-.58.19-.79,0,.27.14.58-.19.79"/><path class="cls-3" d="M111.08,89.84c0-.27-.15-.58.19-.79,0,.28.15.58-.19.79"/><path class="cls-3" d="M29.2,89.24c.33.21.15.52.19.79-.38-.2-.17-.52-.19-.79"/><path class="cls-3" d="M29.42,90.58c.32.22.14.53.18.8-.38-.21-.17-.52-.18-.8"/><path class="cls-3" d="M29.63,91.93c.33.21.15.53.18.8-.38-.21-.16-.53-.18-.8"/><path class="cls-3" d="M66.63,92.74c0-.28-.15-.58.19-.79,0,.27.15.58-.19.79"/><path class="cls-3" d="M66.42,94.09c0-.28-.15-.58.19-.79,0,.27.15.58-.19.79"/><path class="cls-3" d="M66.21,95.44c0-.28-.15-.58.18-.8,0,.28.15.58-.18.8"/><path class="cls-3" d="M74.08,94.83c.32.22.15.52.18.8-.37-.21-.17-.52-.18-.8"/><path class="cls-3" d="M30.26,95.61c.34.21.18.52.19.79-.34-.21-.17-.52-.19-.79"/><path class="cls-3" d="M66,96.79c0-.28-.16-.59.18-.8,0,.28.15.58-.18.8"/><path class="cls-3" d="M74.29,96.18c.32.22.16.52.18.79-.37-.2-.17-.52-.18-.79"/><path class="cls-3" d="M30.48,97c.34.21.17.52.18.79-.33-.21-.17-.52-.18-.79"/><path class="cls-3" d="M65.78,98.13c0-.27-.15-.58.19-.79,0,.28.15.58-.19.79"/><path class="cls-3" d="M74.5,97.53c.33.21.16.52.19.79-.38-.2-.17-.52-.19-.79"/><path class="cls-3" d="M30.69,98.3c.34.22.17.53.19.8-.34-.21-.18-.52-.19-.8"/><path class="cls-3" d="M65.57,99.48c0-.27-.15-.58.18-.79,0,.28.16.58-.18.79"/><path class="cls-3" d="M74.72,98.88c.32.21.15.52.18.79-.37-.2-.17-.52-.18-.79"/><path class="cls-3" d="M109.38,100.26c0-.28-.15-.58.19-.79,0,.27.15.58-.19.79"/><path class="cls-3" d="M109.17,101.6c0-.27-.15-.58.19-.79,0,.28.15.58-.19.79"/><path class="cls-3" d="M65.14,102.18c0-.27-.15-.58.19-.79,0,.27.15.58-.19.79"/><path class="cls-3" d="M64.93,103.53c0-.27-.15-.58.18-.79,0,.27.16.58-.18.79"/><path class="cls-3" d="M75.35,102.92c.33.22.16.53.19.8-.38-.21-.17-.52-.19-.8"/><path class="cls-3" d="M108.74,104.3c0-.27-.15-.58.19-.79,0,.27.15.58-.19.79"/><path class="cls-3" d="M31.54,103.69c.33.22.15.53.19.8-.38-.21-.17-.52-.19-.8"/><path class="cls-3" d="M75.56,104.09c.32.22.18.52.19.79-.36-.21-.17-.52-.19-.79"/><path class="cls-3" d="M31.76,105c.32.22.14.53.18.8-.38-.21-.17-.53-.18-.8"/><path class="cls-3" d="M75.78,105.62c.33.22.15.53.18.8-.37-.21-.16-.52-.18-.8"/><path class="cls-3" d="M32,106.39c.33.21.14.53.18.8-.38-.21-.16-.53-.18-.8"/><path class="cls-3" d="M76,107c.33.22.15.53.19.8-.38-.21-.17-.53-.19-.8"/><path class="cls-3" d="M76.21,108.32c.32.21.14.53.18.8-.38-.21-.17-.53-.18-.8"/><path class="cls-3" d="M63.87,110.28c0-.27-.14-.58.19-.8,0,.28.18.59-.19.8"/><path class="cls-3" d="M76.42,109.67c.33.21.15.52.18.8-.38-.21-.16-.53-.18-.8"/><path class="cls-3" d="M32.6,110.07c.34.21.18.52.19.79-.34-.21-.17-.52-.19-.79"/><path class="cls-3" d="M63.66,111.63c0-.28-.14-.58.18-.8,0,.28.19.59-.18.8"/><path class="cls-3" d="M76.63,111c.33.22.15.53.19.81-.38-.21-.17-.53-.19-.81"/><path class="cls-3" d="M32.82,111.42c.34.21.17.52.18.79-.33-.21-.17-.52-.18-.79"/><path class="cls-3" d="M33,112.76c.34.21.17.52.19.8-.34-.22-.18-.52-.19-.8"/><path class="cls-3" d="M77.06,113.71c.33.22.14.53.18.8-.38-.2-.16-.52-.18-.8"/><path class="cls-3" d="M107,114.71c0-.27-.14-.58.19-.79,0,.28.15.58-.19.79"/><path class="cls-3" d="M63,115.67c0-.27-.14-.58.18-.79,0,.27.19.59-.18.79"/><path class="cls-3" d="M77.27,115.06c.33.22.14.53.18.8-.38-.2-.16-.52-.18-.8"/><path class="cls-3" d="M106.83,116.06c0-.27-.15-.58.19-.79,0,.27.15.58-.19.79"/><path class="cls-3" d="M77.48,116.41c.34.22.15.53.19.8-.39-.2-.16-.53-.19-.8"/><path class="cls-3" d="M106.4,118.76c0-.27-.15-.58.19-.79,0,.27.15.58-.19.79"/><path class="cls-3" d="M33.88,118.15c.33.22.15.53.19.8-.38-.21-.17-.52-.19-.8"/><path class="cls-3" d="M62.38,119.72c0-.27-.14-.58.18-.8,0,.28.2.59-.18.8"/><path class="cls-3" d="M34.1,119.5c.32.21.14.53.18.8-.38-.21-.17-.53-.18-.8"/><path class="cls-3" d="M62.17,121.07c0-.27-.15-.58.18-.8,0,.28.19.59-.18.8"/><path class="cls-3" d="M34.31,120.84c.33.22.14.54.18.81-.38-.21-.16-.53-.18-.81"/><path class="cls-3" d="M62,122.42c0-.27-.15-.58.18-.8,0,.28.19.59-.18.8"/><path class="cls-3" d="M61.74,123.77c0-.27-.14-.58.19-.8,0,.27.19.59-.19.8"/><path class="cls-3" d="M61.53,125.12c0-.27-.15-.59.18-.8,0,.27.2.59-.18.8"/><path class="cls-3" d="M34.94,124.53c.34.21.17.51.19.79-.34-.21-.18-.52-.19-.79"/><path class="cls-3" d="M79,125.49c.34.21.17.52.18.79-.33-.21-.17-.52-.18-.79"/><path class="cls-3" d="M35.16,125.87c.33.21.16.52.18.8-.33-.22-.17-.52-.18-.8"/><path class="cls-3" d="M79.18,126.84c.34.21.17.52.19.79-.34-.21-.18-.52-.19-.79"/><path class="cls-3" d="M35.37,127.22c.34.21.16.52.19.79-.34-.21-.18-.51-.19-.79"/><path class="cls-3" d="M79.39,128.19c.34.21.17.52.19.79-.33-.21-.18-.52-.19-.79"/><path class="cls-3" d="M104.7,129.17c0-.27-.14-.58.19-.79,0,.27.15.58-.19.79"/><path class="cls-3" d="M79.61,129.54c.34.21.17.52.18.79-.33-.21-.17-.52-.18-.79"/><path class="cls-3" d="M60.68,130.52c0-.28-.15-.59.18-.81,0,.28.2.6-.18.81"/><path class="cls-3" d="M104.49,130.52c0-.27-.15-.58.19-.79,0,.27.15.58-.19.79"/><path class="cls-3" d="M79.82,130.89c.34.21.17.52.19.79-.34-.21-.18-.52-.19-.79"/><path class="cls-3" d="M89.79,66.91c-.32-.14-.16-.39-.18-.6.34.13.17.39.18.6"/><path class="cls-3" d="M87.88,56.31c-.31-.15-.18-.39-.18-.61.34.14.16.39.18.61"/><path class="cls-3" d="M53.2,53.2c0,.21.14.47-.18.6,0-.21-.16-.47.18-.6"/><path class="cls-3" d="M56.18,36.62c0,.21.14.47-.18.6,0-.21-.16-.46.18-.6"/><path class="cls-3" d="M40.23,34c-.31-.14-.15-.39-.18-.61.34.14.17.4.18.61"/><path class="cls-3" d="M58.09,26c0,.21.13.46-.18.6,0-.21-.16-.47.18-.6"/><path class="cls-3" d="M37.25,17.37c-.31-.14-.15-.39-.17-.6.34.13.16.39.17.6"/><path class="cls-3" d="M16.86,12l0,.39c-.18,0-.19-.14-.18-.27s.1-.13.21-.12"/><path class="cls-3" d="M313.21,154.53h-2.54c.05-1.29.51-1.81,1.34-1.81.64,0,1.06.4,1.18,1.18a3.47,3.47,0,0,1,0,.63m-2.54.86h3.8a7.3,7.3,0,0,0,0-1.17c-.13-1.73-1-2.58-2.46-2.58-1.65,0-2.72,1-2.72,3.56s.89,3.31,2.74,3.31c1.66,0,2.42-.76,2.52-1.86a1.37,1.37,0,0,0,0-.42l-1.26-.11s0,.16,0,.26c0,.6-.28,1.08-1.23,1.08s-1.39-.68-1.38-2.07m-7.15,3h4.88v-1.11H305l3.42-4.06v-1.36h-4.72V153h3.26l-3.42,4.14Zm-3.71,0v-3.54c0-1.13.51-2,1.32-2a.78.78,0,0,1,.86.86,3.63,3.63,0,0,1-.15.94l1.21-.23a3.48,3.48,0,0,0,.28-1.25c0-.9-.67-1.48-1.77-1.48a2,2,0,0,0-1.78,1.64v-1.49h-1.34v6.53Zm-6.75-3.21c0-1.81.42-2.48,1.36-2.48s1.37.67,1.37,2.48c0,1.62-.4,2.24-1.37,2.24s-1.36-.59-1.36-2.24m4.13.05c0-2.31-.93-3.57-2.77-3.57s-2.76,1.13-2.76,3.57.94,3.3,2.76,3.3,2.77-.91,2.77-3.3m-9.47-2.47v3.94c0,1.33.61,1.77,1.65,1.77a4.19,4.19,0,0,0,1.79-.4v-.94a3.14,3.14,0,0,1-1.16.29c-.62,0-.9-.18-.9-.71v-3.95h1.63v-.9H289.1V150h-1.38v1.8h-1.21v.9Zm-3.6,2.12-.06,1.24a1.39,1.39,0,0,1-1.25,1.43c-.87.08-1.24-.37-1.24-.93s.44-1,1.5-1.24a2.06,2.06,0,0,0,1.05-.5m0,2.62c.1.65.4,1,.94,1a2.62,2.62,0,0,0,1.18-.28v-.65h-.19c-.58,0-.66-.2-.66-.55V153.6c0-1.35-.91-2-2.48-2s-2.51.65-2.51,1.63a2.34,2.34,0,0,0,.1.73l1.29-.08a1.72,1.72,0,0,1-.1-.53c0-.4.18-.82,1.16-.82a1.1,1.1,0,0,1,1.25,1.25c-.11.33-.94.58-2.14.88-1,.24-1.8.79-1.8,1.84a1.77,1.77,0,0,0,2,2,2.15,2.15,0,0,0,2-1m-6.48-5.64v3.62c0,1.24-.8,1.92-1.41,1.92-.89,0-1.12-.45-1.12-1.33v-4.21h-1.36v4.87a1.67,1.67,0,0,0,1.83,1.8,2.12,2.12,0,0,0,2.07-1.46v1.32H279v-6.53Zm-8.53-1.24c1,0,1.86.64,1.86,3.41s-.81,3.37-1.86,3.37-1.86-.54-1.86-3.37.72-3.41,1.86-3.41m.4,7.87c1.84-.12,3-1.09,3-4.48s-1.42-4.49-3.38-4.49-3.38,1.1-3.38,4.49c0,3.11.94,4.21,2.62,4.44a4.31,4.31,0,0,0-.05.55c0,1,.54,1.42,1.74,1.42,1,0,1.54-.44,1.54-1.39v-.21l-1-.11c0,.48-.12.86-.55.86s-.67-.31-.57-1Zm-10.79-.1v-3.54c0-1.13.51-2,1.32-2a.78.78,0,0,1,.85.86,4.14,4.14,0,0,1-.14.94l1.21-.23a3.48,3.48,0,0,0,.28-1.25c0-.9-.68-1.48-1.77-1.48a2,2,0,0,0-1.78,1.64v-1.49h-1.35v6.53Zm-4.48-3.51-.06,1.24a1.39,1.39,0,0,1-1.25,1.43c-.86.08-1.24-.37-1.24-.93s.44-1,1.5-1.24a2.06,2.06,0,0,0,1-.5m0,2.62c.1.65.4,1,.95,1a2.61,2.61,0,0,0,1.17-.28v-.65h-.18c-.58,0-.66-.2-.66-.55V153.6c0-1.35-.91-2-2.48-2s-2.52.65-2.52,1.63a2.68,2.68,0,0,0,.1.73l1.29-.08a1.72,1.72,0,0,1-.1-.53c0-.4.18-.82,1.16-.82a1.1,1.1,0,0,1,1.25,1.25c-.1.33-.93.58-2.14.88-1,.24-1.8.79-1.8,1.84a1.77,1.77,0,0,0,2,2,2.15,2.15,0,0,0,2-1m-7.72-.08c-.8,0-1.4-.46-1.4-2.31,0-1.56.68-2.28,1.39-2.28s1.42.57,1.42,2.3c0,2-.73,2.29-1.41,2.29m-1.4,0a1.89,1.89,0,0,0,1.72,1c1.43,0,2.49-.86,2.49-3.37,0-2.7-1.2-3.37-2.39-3.37a1.85,1.85,0,0,0-1.83,1.37v-1.24h-1.34v8.4h1.35Zm-6.76-2.92h-2.53c0-1.29.5-1.81,1.33-1.81.65,0,1.07.4,1.18,1.18a3.47,3.47,0,0,1,0,.63m-2.53.86h3.8a8.88,8.88,0,0,0,0-1.17c-.13-1.73-1-2.58-2.46-2.58-1.65,0-2.72,1-2.72,3.56s.89,3.31,2.74,3.31c1.66,0,2.43-.76,2.52-1.86a1.86,1.86,0,0,0,0-.42l-1.27-.11s0,.16,0,.26c0,.6-.28,1.08-1.23,1.08s-1.39-.68-1.37-2.07m.52-4.14h.86l2-1.3v-.12h-2ZM228.58,156a2.53,2.53,0,0,0-.16.81c0,.93.88,1.67,2.53,1.67,1.8,0,2.65-.84,2.65-2.07,0-.95-.62-1.56-1.76-1.91l-1-.3c-.8-.25-1-.43-1-.81s.32-.78,1-.78,1.12.34,1.12.74a1.65,1.65,0,0,1-.08.43l1.32-.09a1.4,1.4,0,0,0,.09-.47c0-.89-.88-1.61-2.48-1.61-1.39,0-2.35.75-2.35,1.92,0,1,.56,1.42,1.5,1.72l.91.28c1.15.35,1.27.71,1.27,1.05,0,.58-.41.9-1.23.9s-1.21-.44-1.21-1a2.33,2.33,0,0,1,.06-.43Zm-1.32-6.4h-1.39v8.74h1.39ZM223,151.84v3.62c0,1.24-.8,1.92-1.41,1.92-.89,0-1.11-.45-1.11-1.33v-4.21H219.1v4.87a1.67,1.67,0,0,0,1.83,1.8,2.11,2.11,0,0,0,2.07-1.46v1.32h1.36v-6.53Zm-8,5.56c-.8,0-1.4-.46-1.4-2.31,0-1.56.68-2.28,1.38-2.28s1.43.57,1.43,2.3c0,2-.73,2.29-1.41,2.29m-1.4,0a1.87,1.87,0,0,0,1.71,1c1.44,0,2.5-.86,2.5-3.37,0-2.7-1.2-3.37-2.39-3.37a1.85,1.85,0,0,0-1.83,1.37v-1.24h-1.35v8.4h1.36Zm-6.46.92v-3.62c0-1.12.75-1.92,1.29-1.92.72,0,.95.3.95,1.33v4.21h1.36v-4.9c0-1.12-.51-1.75-1.56-1.75a2.06,2.06,0,0,0-2.07,1.58,1.41,1.41,0,0,0-1.59-1.58,2,2,0,0,0-2,1.58v-1.46h-1.35v6.53h1.36v-3.62c0-1.24.75-1.92,1.31-1.92s.93.3.93,1.33v4.21Zm-6.46-8.74h-1.44v1.59h1.44Zm0,2.21h-1.39v6.53h1.39Zm-6.8,2.69h-2.54c.05-1.29.5-1.81,1.33-1.81.65,0,1.07.4,1.19,1.18a3.47,3.47,0,0,1,0,.63m-2.54.86h3.8a6.39,6.39,0,0,0,0-1.17c-.12-1.73-1-2.58-2.45-2.58-1.65,0-2.72,1-2.72,3.56s.89,3.31,2.74,3.31c1.66,0,2.42-.76,2.51-1.86a1.14,1.14,0,0,0,0-.42l-1.26-.11s0,.16,0,.26c0,.6-.29,1.08-1.23,1.08s-1.39-.68-1.38-2.07m-5.42,3v-3.54c0-1.13.51-2,1.32-2a.78.78,0,0,1,.85.86,3.63,3.63,0,0,1-.15.94l1.22-.23a3.47,3.47,0,0,0,.27-1.25c0-.9-.67-1.48-1.76-1.48a2,2,0,0,0-1.79,1.64v-1.49h-1.34v6.53ZM183,149.63H181.6v1.59H183Zm0,2.21h-1.39v6.53H183Zm-4.5,3-.06,1.24a1.39,1.39,0,0,1-1.25,1.43c-.87.08-1.24-.37-1.24-.93s.44-1,1.5-1.24a2.06,2.06,0,0,0,1-.5m0,2.62c.1.65.4,1,.94,1a2.58,2.58,0,0,0,1.17-.28v-.65h-.18c-.58,0-.66-.2-.66-.55V153.6c0-1.35-.91-2-2.48-2s-2.51.65-2.51,1.63a2.34,2.34,0,0,0,.1.73l1.29-.08a1.72,1.72,0,0,1-.11-.53c0-.4.19-.82,1.16-.82a1.1,1.1,0,0,1,1.26,1.25c-.11.33-.94.58-2.14.88-1,.24-1.8.79-1.8,1.84a1.77,1.77,0,0,0,2,2,2.15,2.15,0,0,0,2-1m-7.93-4.75a1.17,1.17,0,0,1,1.08.66,3.94,3.94,0,0,1,.34,1.73c0,1.64-.43,2.36-1.4,2.36s-1.37-.61-1.37-2.37c0-1.6.41-2.38,1.35-2.38m1.47.12a1.75,1.75,0,0,0-1.75-1.09c-1.47,0-2.47,1.16-2.47,3.39s.84,3.31,2.44,3.31a2,2,0,0,0,1.79-1v.9h1.33v-8.74h-1.34Zm-5.46-3.22h-1.44v1.59h1.44Zm0,2.21H165.2v6.53h1.38Zm-2.91-2.21h-1.39v8.74h1.39Zm-6.78,5.53c0-1.81.42-2.48,1.37-2.48s1.36.67,1.36,2.48c0,1.62-.39,2.24-1.36,2.24s-1.37-.59-1.37-2.24m4.13.05c0-2.31-.92-3.57-2.76-3.57s-2.77,1.13-2.77,3.57.95,3.3,2.77,3.3,2.76-.91,2.76-3.3m-11.45.82a2.53,2.53,0,0,0-.16.81c0,.93.89,1.67,2.54,1.67s2.65-.84,2.65-2.07c0-.95-.63-1.56-1.77-1.91l-1-.3c-.81-.25-1-.43-1-.81s.32-.78,1-.78,1.11.34,1.11.74a1.32,1.32,0,0,1-.08.43l1.32-.09a1.19,1.19,0,0,0,.09-.47c0-.89-.87-1.61-2.48-1.61-1.38,0-2.35.75-2.35,1.92,0,1,.57,1.42,1.5,1.72l.91.28c1.15.35,1.27.71,1.27,1.05,0,.58-.41.9-1.22.9s-1.22-.44-1.22-1a1.75,1.75,0,0,1,.07-.43Zm-6.93-3.29v3.94c0,1.33.6,1.77,1.65,1.77a4.19,4.19,0,0,0,1.79-.4v-.94a3.14,3.14,0,0,1-1.16.29c-.62,0-.9-.18-.9-.71v-3.95h1.62v-.9H144V150h-1.38v1.8h-1.22v.9Zm-3.07,1.79H137c.05-1.29.5-1.81,1.33-1.81.65,0,1.07.4,1.19,1.18a3.47,3.47,0,0,1,0,.63m-2.54.86h3.8a6.39,6.39,0,0,0,0-1.17c-.12-1.73-1-2.58-2.45-2.58-1.65,0-2.72,1-2.72,3.56s.89,3.31,2.74,3.31c1.66,0,2.42-.76,2.51-1.86a1.14,1.14,0,0,0,0-.42l-1.26-.11s0,.16,0,.26c0,.6-.29,1.08-1.23,1.08s-1.39-.68-1.38-2.07m-5.46-5.76h-1.38v8.74h1.38Zm-4.5,5.23L127,156.1a1.39,1.39,0,0,1-1.25,1.43c-.86.08-1.24-.37-1.24-.93s.45-1,1.5-1.24a2.06,2.06,0,0,0,1-.5m0,2.62c.11.65.4,1,.95,1a2.61,2.61,0,0,0,1.17-.28v-.65H129c-.58,0-.66-.2-.66-.55V153.6c0-1.35-.91-2-2.48-2s-2.52.65-2.52,1.63a2.33,2.33,0,0,0,.11.73l1.28-.08a2.08,2.08,0,0,1-.1-.53c0-.4.18-.82,1.16-.82a1.1,1.1,0,0,1,1.25,1.25c-.1.33-.93.58-2.14.88-1,.24-1.8.79-1.8,1.84a1.77,1.77,0,0,0,2,2,2.15,2.15,0,0,0,2-1m-5.1-7.85h-1.44v1.59H122Zm0,2.21h-1.39v6.53H122Zm-2.8,3.85-1.21-.07c0,.1,0,.28,0,.43,0,1-.37,1.35-1.19,1.35-1,0-1.32-.47-1.32-2.45,0-1.66.38-2.27,1.33-2.27.6,0,1.06.37,1.06,1.23a1.46,1.46,0,0,1,0,.39l1.29-.05a2.86,2.86,0,0,0,0-.54c0-1.16-.63-2.07-2.26-2.07s-2.81.94-2.81,3.71c0,2.32.82,3.16,2.71,3.16,1.7,0,2.48-1,2.48-2a3.11,3.11,0,0,0-.1-.84m-10.22-.53c0-1.81.42-2.48,1.36-2.48s1.37.67,1.37,2.48c0,1.62-.4,2.24-1.37,2.24s-1.36-.59-1.36-2.24m4.13.05c0-2.31-.92-3.57-2.77-3.57s-2.76,1.13-2.76,3.57.94,3.3,2.76,3.3,2.77-.91,2.77-3.3m-11.46.82a2.53,2.53,0,0,0-.16.81c0,.93.89,1.67,2.54,1.67,1.8,0,2.65-.84,2.65-2.07,0-.95-.62-1.56-1.76-1.91l-1-.3c-.81-.25-1-.43-1-.81s.32-.78,1-.78,1.12.34,1.12.74a1.65,1.65,0,0,1-.08.43l1.32-.09a1.4,1.4,0,0,0,.09-.47c0-.89-.88-1.61-2.48-1.61-1.39,0-2.36.75-2.36,1.92,0,1,.57,1.42,1.51,1.72l.91.28c1.14.35,1.27.71,1.27,1.05,0,.58-.41.9-1.23.9s-1.22-.44-1.22-1a2.4,2.4,0,0,1,.07-.43Zm-7,2.34v-3.54c0-1.13.51-2,1.32-2a.78.78,0,0,1,.85.86,4.14,4.14,0,0,1-.14.94l1.21-.23a3.48,3.48,0,0,0,.28-1.25c0-.9-.67-1.48-1.77-1.48a2,2,0,0,0-1.78,1.64v-1.49H93.19v6.53Zm-3.94-3.84H88.08c0-1.29.5-1.81,1.33-1.81.65,0,1.07.4,1.18,1.18a2.81,2.81,0,0,1,0,.63m-2.54.86h3.8a8.88,8.88,0,0,0,0-1.17c-.13-1.73-1-2.58-2.46-2.58-1.65,0-2.72,1-2.72,3.56s.89,3.31,2.74,3.31c1.67,0,2.43-.76,2.52-1.86a1.86,1.86,0,0,0,0-.42l-1.27-.11s0,.16,0,.26c0,.6-.28,1.08-1.23,1.08s-1.38-.68-1.37-2.07m-2.61-5.76H84v1.59h1.43Zm0,2.21H84.06v6.53h1.39Zm-2.91-2.21H81.15v8.74h1.39Zm-2.89,0H78.22v1.59h1.43Zm0,2.21H78.24v6.53h1.39Zm-5.51,5.59c-1,0-1.4-.66-1.4-2.34,0-1.46.57-2.32,1.39-2.32s1.42.37,1.42,2.34-.54,2.32-1.41,2.32m-1.69,0a2.31,2.31,0,0,0,2,1c1.43,0,2.49-.77,2.49-3.37s-1.19-3.37-2.39-3.37A1.88,1.88,0,0,0,72.71,153v-3.36H71.37v8.74h.48ZM66,155.16c0-1.81.42-2.48,1.36-2.48s1.37.67,1.37,2.48c0,1.62-.4,2.24-1.37,2.24S66,156.81,66,155.16m4.13.05c0-2.31-.92-3.57-2.77-3.57s-2.76,1.13-2.76,3.57.94,3.3,2.76,3.3,2.77-.91,2.77-3.3m-10.39,3.16v-3.62c0-1.12.75-1.92,1.3-1.92.72,0,.94.3.94,1.33v4.21h1.37v-4.9c0-1.12-.51-1.75-1.56-1.75a2.06,2.06,0,0,0-2.07,1.58,1.41,1.41,0,0,0-1.59-1.58,2,2,0,0,0-2,1.58v-1.46H54.76v6.53h1.37v-3.62c0-1.24.75-1.92,1.31-1.92s.93.3.93,1.33v4.21Zm-10.07,0v-3.62c0-1.12.75-1.92,1.29-1.92.72,0,.95.3.95,1.33v4.21h1.36v-4.9c0-1.12-.51-1.75-1.56-1.75a2.06,2.06,0,0,0-2.07,1.58A1.41,1.41,0,0,0,48,151.72a2,2,0,0,0-2,1.58v-1.46H44.68v6.53h1.37v-3.62c0-1.24.75-1.92,1.31-1.92s.93.3.93,1.33v4.21Zm-6.47-8.74H41.76v1.59h1.43Zm0,2.21H41.78v6.53h1.39Zm-4.55-.54h.75a.94.94,0,0,1-.25.92,2.44,2.44,0,0,1-.77.32l.12.51a2.64,2.64,0,0,0,1.09-.34,1.53,1.53,0,0,0,.7-1.41v-1.67H38.62Zm-2.88,5.91v-7.58H34.31v8.74H39v-1.16Z"/></g></svg>